HIERARCHY
ROOT joint_Root
{
	OFFSET 0.0 0.0 0.0
	CHANNELS 6 Xposition Yposition Zposition Zrotation Xrotation Yrotation 
	JOINT Hips
	{
		OFFSET -0.726466 93.3139 -2.00062
		CHANNELS 6 Xposition Yposition Zposition Zrotation Xrotation Yrotation 
		JOINT Spine
		{
			OFFSET 15.7357 0.0 0.0
			CHANNELS 6 Xposition Yposition Zposition Zrotation Xrotation Yrotation 
			JOINT Chest
			{
				OFFSET 8.98455 -0.406207 0.0
				CHANNELS 6 Xposition Yposition Zposition Zrotation Xrotation Yrotation 
				JOINT Neck
				{
					OFFSET 16.3773 0.0 0.0
					CHANNELS 6 Xposition Yposition Zposition Zrotation Xrotation Yrotation 
					JOINT Head
					{
						OFFSET 6.45672 0.0 0.0
						CHANNELS 6 Xposition Yposition Zposition Zrotation Xrotation Yrotation 
						End Site
						{
							OFFSET 0.0 0.0 0.0
						}
					}
				}
				JOINT Shoulder_L
				{
					OFFSET 12.9942 -0.242716 4.98039
					CHANNELS 6 Xposition Yposition Zposition Zrotation Xrotation Yrotation 
					JOINT UpperArm_L
					{
						OFFSET 5.34809 0.0 0.0
						CHANNELS 6 Xposition Yposition Zposition Zrotation Xrotation Yrotation 
						JOINT LowerArm_L
						{
							OFFSET 24.3286 1.87007e-05 0.0
							CHANNELS 6 Xposition Yposition Zposition Zrotation Xrotation Yrotation 
							JOINT Hand_L
							{
								OFFSET 22.2916 0.0 0.0
								CHANNELS 6 Xposition Yposition Zposition Zrotation Xrotation Yrotation 
								End Site
								{
									OFFSET 0.0 0.0 0.0
								}
							}
						}
					}
				}
				JOINT Shoulder_R
				{
					OFFSET 12.9945 -0.242716 -4.98039
					CHANNELS 6 Xposition Yposition Zposition Zrotation Xrotation Yrotation 
					JOINT UpperArm_R
					{
						OFFSET -5.34813 0.0 0.0
						CHANNELS 6 Xposition Yposition Zposition Zrotation Xrotation Yrotation 
						JOINT LowerArm_R
						{
							OFFSET -24.3289 0.000322201 0.0
							CHANNELS 6 Xposition Yposition Zposition Zrotation Xrotation Yrotation 
							JOINT Hand_R
							{
								OFFSET -22.2915 -0.000108084 0.0
								CHANNELS 6 Xposition Yposition Zposition Zrotation Xrotation Yrotation 
								End Site
								{
									OFFSET 0.0 0.0 0.0
								}
							}
						}
					}
				}
			}
		}
		JOINT UpperLeg_L
		{
			OFFSET -2.19248 -6.46944 0.0
			CHANNELS 6 Xposition Yposition Zposition Zrotation Xrotation Yrotation 
			JOINT LowerLeg_L
			{
				OFFSET 39.0811 0.0 -1.23785e-05
				CHANNELS 6 Xposition Yposition Zposition Zrotation Xrotation Yrotation 
				JOINT Foot_L
				{
					OFFSET 40.9854 0.0 -1.26872e-05
					CHANNELS 6 Xposition Yposition Zposition Zrotation Xrotation Yrotation 
					JOINT Toes_L
					{
						OFFSET 11.7543 0.0 0.0
						CHANNELS 6 Xposition Yposition Zposition Zrotation Xrotation Yrotation 
						End Site
						{
							OFFSET 0.0 0.0 0.0
						}
					}
				}
			}
		}
		JOINT UpperLeg_R
		{
			OFFSET -2.19251 6.46944 0.0
			CHANNELS 6 Xposition Yposition Zposition Zrotation Xrotation Yrotation 
			JOINT LowerLeg_R
			{
				OFFSET -39.0811 -0.00228153 -0.0401928
				CHANNELS 6 Xposition Yposition Zposition Zrotation Xrotation Yrotation 
				JOINT Foot_R
				{
					OFFSET -40.9854 0.0 0.0
					CHANNELS 6 Xposition Yposition Zposition Zrotation Xrotation Yrotation 
					JOINT Toes_R
					{
						OFFSET -11.7543 0.0 0.0
						CHANNELS 6 Xposition Yposition Zposition Zrotation Xrotation Yrotation 
						End Site
						{
							OFFSET 0.0 0.0 0.0
						}
					}
				}
			}
		}
	}
}
MOTION
Frames:	4
Frame Time:	0.0333333
0.000000 0.000000 0.000000 0.000000 0.000000 -0.000000 0.045897 92.198800 -0.706620 88.084900 -0.644670 5.981470 15.735700 0.000005 -0.000001 83.806600 84.868900 -83.251100 8.984550 -0.406207 -0.000000 2.442430 -1.132050 1.133950 16.377300 -0.000001 -0.000001 1.737170 -2.182020 0.036606 6.456720 -0.000001 -0.000000 3.802760 -2.569710 -0.552689 12.994200 -0.242716 4.980390 -89.859300 -0.448850 -72.588400 5.348090 -0.000007 -0.000001 -67.705500 38.581400 -15.734700 24.328600 0.000019 0.000005 2.271960 5.448430 -22.669200 22.291600 -0.000001 0.000005 0.479488 5.442510 -4.384520 12.994500 -0.242716 -4.980390 88.315800 5.577460 -73.167700 -5.348130 -0.000001 -0.000004 -63.517500 39.186700 -17.475400 -24.328900 0.000322 -0.000009 4.439940 12.054000 -20.397200 -22.291500 -0.000108 -0.000004 -1.317420 5.267280 1.082020 -2.192480 -6.469440 -0.000000 -175.558000 -8.543160 -1.265520 39.081100 -0.000007 -0.000012 -0.103691 0.235149 23.795500 40.985400 -0.000006 -0.000013 0.438593 3.921030 -66.727200 11.754300 -0.000000 0.000003 -0.000044 -0.000505 -16.597200 -2.192510 6.469440 -0.000001 178.704000 14.498200 -178.393000 -39.081100 -0.002282 -0.040193 -0.061877 0.178050 20.111700 -40.985400 0.000008 0.000006 2.111190 7.383140 -65.877900 -11.754300 -0.000006 -0.000006 -0.008235 -0.089943 -20.235900
0.000000 0.000000 0.000000 0.000000 0.000000 -0.000000 0.036809 92.190400 -0.783285 88.100700 -0.539647 6.160870 15.735700 0.000005 -0.000001 83.185200 84.833300 -82.654100 8.984550 -0.406207 -0.000000 2.500980 -1.249580 1.088390 16.377300 -0.000001 -0.000001 1.775190 -2.238860 -0.096376 6.456720 -0.000001 -0.000000 4.278870 -2.478880 -0.129509 12.994200 -0.242716 4.980390 -89.844800 -0.495441 -72.604900 5.348090 -0.000007 -0.000001 -64.939800 36.627400 -18.310100 24.328600 0.000019 0.000005 3.933100 8.080450 -26.053300 22.291600 -0.000001 0.000005 -2.219340 5.461660 -5.057270 12.994500 -0.242716 -4.980390 88.320500 5.451020 -72.846500 -5.348130 -0.000001 -0.000004 -60.209900 37.401300 -20.551300 -24.328900 0.000322 -0.000009 5.705330 11.667300 -26.298800 -22.291500 -0.000108 -0.000004 -13.914600 5.135610 4.396470 -2.192480 -6.469440 -0.000000 -175.568000 -8.406240 -1.198310 39.081100 -0.000007 -0.000012 -0.103420 0.233569 23.883000 40.985400 -0.000006 -0.000013 0.443752 3.921310 -66.711200 11.754300 -0.000000 0.000003 -0.000037 -0.000435 -16.594500 -2.192510 6.469440 -0.000001 178.681000 14.442400 -178.319000 -39.081100 -0.002282 -0.040193 -0.062555 0.178693 20.236500 -40.985400 0.000008 0.000006 2.109980 7.190430 -65.896900 -11.754300 -0.000006 -0.000006 -0.008479 -0.091900 -20.315800
0.000000 0.000000 0.000000 0.000000 0.000000 -0.000000 0.007367 92.176400 -0.922639 88.119100 -0.345421 6.462970 15.735700 0.000005 -0.000001 82.324800 84.779900 -81.812900 8.984550 -0.406207 -0.000000 2.587890 -1.416310 1.054760 16.377300 -0.000001 -0.000001 2.231980 -2.333800 -0.117319 6.456720 -0.000001 -0.000000 4.806150 -2.367250 -0.037422 12.994200 -0.242716 4.980390 -89.854500 -0.469383 -72.771400 5.348090 -0.000007 -0.000001 -59.720900 33.637500 -22.530300 24.328600 0.000019 0.000005 5.199050 8.316590 -32.178900 22.291600 -0.000001 0.000005 1.269150 5.500420 -6.493220 12.994500 -0.242716 -4.980390 88.343700 5.190900 -72.275600 -5.348130 -0.000001 -0.000004 -54.978300 34.617900 -25.700900 -24.328900 0.000322 -0.000009 7.143370 10.310400 -34.991000 -22.291500 -0.000108 -0.000004 -20.519900 5.011300 7.077880 -2.192480 -6.469440 -0.000000 -175.537000 -8.317640 -1.098890 39.081100 -0.000007 -0.000012 -0.104646 0.234594 24.040400 40.985400 -0.000006 -0.000013 0.456455 4.021700 -66.674500 11.754300 -0.000000 0.000003 -0.000042 -0.000483 -16.596300 -2.192510 6.469440 -0.000001 178.636000 14.425900 -178.179000 -39.081100 -0.002282 -0.040193 -0.065802 0.185798 20.406700 -40.985400 0.000008 0.000006 1.997100 7.001840 -65.886900 -11.754300 -0.000006 -0.000006 -0.008381 -0.091112 -20.283600
0.000000 0.000000 0.000000 0.000000 0.000000 -0.000000 -0.006348 92.155900 -1.096890 88.154900 -0.175343 6.865100 15.735700 0.000005 -0.000001 81.672100 84.728000 -81.180000 8.984550 -0.406207 -0.000000 2.674520 -1.547690 1.019560 16.377300 -0.000001 -0.000001 2.934790 -2.371240 -0.083720 6.456720 -0.000001 -0.000000 5.721650 -2.299820 -0.075169 12.994200 -0.242716 4.980390 -89.811800 -0.614531 -72.969500 5.348090 -0.000007 -0.000001 -55.277400 26.998200 -27.210300 24.328600 0.000019 0.000005 5.573550 6.824590 -39.397000 22.291600 -0.000001 0.000005 6.147060 5.550000 -8.682340 12.994500 -0.242716 -4.980390 88.388800 4.959460 -71.976600 -5.348130 -0.000001 -0.000004 -49.202900 29.754100 -31.793000 -24.328900 0.000322 -0.000009 11.971700 11.847600 -45.894600 -22.291500 -0.000108 -0.000004 -13.415700 5.071270 5.857560 -2.192480 -6.469440 -0.000000 -175.491000 -8.382150 -0.936931 39.081100 -0.000007 -0.000012 -0.105804 0.234990 24.239700 40.985400 -0.000006 -0.000013 0.509993 4.258940 -66.638400 11.754300 -0.000000 0.000003 -0.000038 -0.000448 -16.595000 -2.192510 6.469440 -0.000001 178.509000 14.492400 -177.988000 -39.081100 -0.002282 -0.040193 -0.071330 0.198197 20.638700 -40.985400 0.000008 0.000006 1.798500 6.927060 -65.867200 -11.754300 -0.000006 -0.000006 -0.008396 -0.091233 -20.288600
